<mxfile host="app.diagrams.net" modified="2021-03-28T14:46:22.775Z" agent="5.0 (Windows NT 10.0; Win64; x64) AppleWebKit/537.36 (KHTML, like Gecko) Chrome/89.0.4389.90 Safari/537.36" etag="oZjipJxph1JeNV1D50gv" version="14.5.3" type="github">
  <diagram id="t7jElAKFilhOkE4xHkL2" name="Page-1">
    <mxGraphModel dx="948" dy="508" grid="1" gridSize="10" guides="1" tooltips="1" connect="1" arrows="1" fold="1" page="1" pageScale="1" pageWidth="850" pageHeight="1100" math="0" shadow="0">
      <root>
        <mxCell id="0" />
        <mxCell id="1" parent="0" />
        <mxCell id="nJWvSu-OrmdliMbgVe7U-1" value="&lt;p style=&quot;margin: 0px ; margin-top: 4px ; margin-left: 10px ; text-align: left&quot;&gt;&lt;b&gt;Diagramme de contexte&lt;/b&gt;&lt;/p&gt;" style="html=1;strokeWidth=1;shape=mxgraph.sysml.package;labelX=157;align=left;spacingLeft=10;overflow=fill;recursiveResize=0;" vertex="1" parent="1">
          <mxGeometry x="50" y="150" width="710" height="470" as="geometry" />
        </mxCell>
        <mxCell id="nJWvSu-OrmdliMbgVe7U-7" value="&lt;font style=&quot;font-size: 17px&quot;&gt;Snakebot&lt;/font&gt;" style="rounded=0;whiteSpace=wrap;html=1;fillColor=#f8cecc;strokeColor=#b85450;" vertex="1" parent="1">
          <mxGeometry x="365" y="355" width="120" height="60" as="geometry" />
        </mxCell>
        <mxCell id="nJWvSu-OrmdliMbgVe7U-8" value="&lt;b&gt;Obstacles&lt;/b&gt;" style="ellipse;whiteSpace=wrap;html=1;fillColor=#fff2cc;strokeColor=#d6b656;" vertex="1" parent="1">
          <mxGeometry x="250" y="280" width="90" height="50" as="geometry" />
        </mxCell>
        <mxCell id="nJWvSu-OrmdliMbgVe7U-10" value="Utilisateur + Smartphone (grâce à &lt;b&gt;App Inventor&lt;/b&gt;)" style="ellipse;whiteSpace=wrap;html=1;fillColor=#dae8fc;strokeColor=#6c8ebf;" vertex="1" parent="1">
          <mxGeometry x="220" y="420" width="130" height="80" as="geometry" />
        </mxCell>
        <mxCell id="nJWvSu-OrmdliMbgVe7U-11" value="&lt;font style=&quot;font-size: 10px&quot;&gt;Personnes blessé(e)s&lt;/font&gt;" style="ellipse;whiteSpace=wrap;html=1;" vertex="1" parent="1">
          <mxGeometry x="110" y="220" width="90" height="50" as="geometry" />
        </mxCell>
        <mxCell id="nJWvSu-OrmdliMbgVe7U-12" value="&lt;font style=&quot;font-size: 10px&quot;&gt;Plantes&lt;/font&gt;" style="ellipse;whiteSpace=wrap;html=1;" vertex="1" parent="1">
          <mxGeometry x="110" y="280" width="90" height="50" as="geometry" />
        </mxCell>
        <mxCell id="nJWvSu-OrmdliMbgVe7U-13" value="&lt;font style=&quot;font-size: 10px&quot;&gt;Routes, trottoirs, murs...&lt;/font&gt;" style="ellipse;whiteSpace=wrap;html=1;" vertex="1" parent="1">
          <mxGeometry x="110" y="340" width="90" height="50" as="geometry" />
        </mxCell>
        <mxCell id="nJWvSu-OrmdliMbgVe7U-14" value="&lt;font style=&quot;font-size: 10px&quot;&gt;Humains et animaux&lt;/font&gt;" style="ellipse;whiteSpace=wrap;html=1;" vertex="1" parent="1">
          <mxGeometry x="220" y="200" width="90" height="50" as="geometry" />
        </mxCell>
        <mxCell id="nJWvSu-OrmdliMbgVe7U-15" value="" style="endArrow=none;html=1;entryX=0.5;entryY=1;entryDx=0;entryDy=0;exitX=0.5;exitY=0;exitDx=0;exitDy=0;" edge="1" parent="1" source="nJWvSu-OrmdliMbgVe7U-8" target="nJWvSu-OrmdliMbgVe7U-14">
          <mxGeometry width="50" height="50" relative="1" as="geometry">
            <mxPoint x="400" y="380" as="sourcePoint" />
            <mxPoint x="450" y="330" as="targetPoint" />
          </mxGeometry>
        </mxCell>
        <mxCell id="nJWvSu-OrmdliMbgVe7U-16" value="" style="endArrow=none;html=1;entryX=1;entryY=1;entryDx=0;entryDy=0;exitX=0;exitY=0;exitDx=0;exitDy=0;" edge="1" parent="1" source="nJWvSu-OrmdliMbgVe7U-8" target="nJWvSu-OrmdliMbgVe7U-11">
          <mxGeometry width="50" height="50" relative="1" as="geometry">
            <mxPoint x="400" y="380" as="sourcePoint" />
            <mxPoint x="450" y="330" as="targetPoint" />
          </mxGeometry>
        </mxCell>
        <mxCell id="nJWvSu-OrmdliMbgVe7U-17" value="" style="endArrow=none;html=1;entryX=1;entryY=0.5;entryDx=0;entryDy=0;exitX=0;exitY=0.5;exitDx=0;exitDy=0;" edge="1" parent="1" source="nJWvSu-OrmdliMbgVe7U-8" target="nJWvSu-OrmdliMbgVe7U-12">
          <mxGeometry width="50" height="50" relative="1" as="geometry">
            <mxPoint x="400" y="380" as="sourcePoint" />
            <mxPoint x="450" y="330" as="targetPoint" />
          </mxGeometry>
        </mxCell>
        <mxCell id="nJWvSu-OrmdliMbgVe7U-18" value="" style="endArrow=none;html=1;entryX=1;entryY=0.5;entryDx=0;entryDy=0;exitX=0;exitY=1;exitDx=0;exitDy=0;" edge="1" parent="1" source="nJWvSu-OrmdliMbgVe7U-8" target="nJWvSu-OrmdliMbgVe7U-13">
          <mxGeometry width="50" height="50" relative="1" as="geometry">
            <mxPoint x="400" y="380" as="sourcePoint" />
            <mxPoint x="450" y="330" as="targetPoint" />
          </mxGeometry>
        </mxCell>
        <mxCell id="nJWvSu-OrmdliMbgVe7U-19" value="" style="endArrow=none;html=1;entryX=1;entryY=1;entryDx=0;entryDy=0;exitX=0;exitY=0;exitDx=0;exitDy=0;" edge="1" parent="1" source="nJWvSu-OrmdliMbgVe7U-7" target="nJWvSu-OrmdliMbgVe7U-8">
          <mxGeometry width="50" height="50" relative="1" as="geometry">
            <mxPoint x="400" y="380" as="sourcePoint" />
            <mxPoint x="450" y="330" as="targetPoint" />
          </mxGeometry>
        </mxCell>
        <mxCell id="nJWvSu-OrmdliMbgVe7U-20" value="" style="endArrow=none;html=1;exitX=1;exitY=0;exitDx=0;exitDy=0;entryX=0;entryY=1;entryDx=0;entryDy=0;" edge="1" parent="1" source="nJWvSu-OrmdliMbgVe7U-10" target="nJWvSu-OrmdliMbgVe7U-7">
          <mxGeometry width="50" height="50" relative="1" as="geometry">
            <mxPoint x="400" y="450" as="sourcePoint" />
            <mxPoint x="450" y="400" as="targetPoint" />
          </mxGeometry>
        </mxCell>
        <mxCell id="nJWvSu-OrmdliMbgVe7U-21" value="&lt;font style=&quot;font-size: 10px&quot;&gt;Caméra LIVE&lt;/font&gt;" style="ellipse;whiteSpace=wrap;html=1;" vertex="1" parent="1">
          <mxGeometry x="90" y="460" width="90" height="50" as="geometry" />
        </mxCell>
        <mxCell id="nJWvSu-OrmdliMbgVe7U-22" value="&lt;font style=&quot;font-size: 10px&quot;&gt;Audio&lt;/font&gt;" style="ellipse;whiteSpace=wrap;html=1;" vertex="1" parent="1">
          <mxGeometry x="110" y="525" width="90" height="50" as="geometry" />
        </mxCell>
        <mxCell id="nJWvSu-OrmdliMbgVe7U-23" value="&lt;font style=&quot;font-size: 10px&quot;&gt;GPS position localisation&lt;/font&gt;" style="ellipse;whiteSpace=wrap;html=1;" vertex="1" parent="1">
          <mxGeometry x="220" y="550" width="90" height="50" as="geometry" />
        </mxCell>
        <mxCell id="nJWvSu-OrmdliMbgVe7U-25" value="" style="endArrow=none;html=1;exitX=1;exitY=0;exitDx=0;exitDy=0;entryX=0.21;entryY=0.908;entryDx=0;entryDy=0;entryPerimeter=0;" edge="1" parent="1" source="nJWvSu-OrmdliMbgVe7U-22" target="nJWvSu-OrmdliMbgVe7U-10">
          <mxGeometry width="50" height="50" relative="1" as="geometry">
            <mxPoint x="400" y="470" as="sourcePoint" />
            <mxPoint x="450" y="420" as="targetPoint" />
          </mxGeometry>
        </mxCell>
        <mxCell id="nJWvSu-OrmdliMbgVe7U-27" value="" style="endArrow=none;html=1;exitX=1;exitY=0.5;exitDx=0;exitDy=0;entryX=0.041;entryY=0.683;entryDx=0;entryDy=0;entryPerimeter=0;" edge="1" parent="1" source="nJWvSu-OrmdliMbgVe7U-21" target="nJWvSu-OrmdliMbgVe7U-10">
          <mxGeometry width="50" height="50" relative="1" as="geometry">
            <mxPoint x="400" y="470" as="sourcePoint" />
            <mxPoint x="450" y="420" as="targetPoint" />
          </mxGeometry>
        </mxCell>
        <mxCell id="nJWvSu-OrmdliMbgVe7U-28" value="" style="endArrow=none;html=1;exitX=0.5;exitY=0;exitDx=0;exitDy=0;entryX=0.5;entryY=1;entryDx=0;entryDy=0;" edge="1" parent="1" source="nJWvSu-OrmdliMbgVe7U-23" target="nJWvSu-OrmdliMbgVe7U-10">
          <mxGeometry width="50" height="50" relative="1" as="geometry">
            <mxPoint x="400" y="470" as="sourcePoint" />
            <mxPoint x="450" y="420" as="targetPoint" />
          </mxGeometry>
        </mxCell>
        <mxCell id="nJWvSu-OrmdliMbgVe7U-29" value="Pilote" style="shape=umlActor;verticalLabelPosition=bottom;verticalAlign=top;html=1;outlineConnect=0;" vertex="1" parent="1">
          <mxGeometry x="550" y="470" width="30" height="60" as="geometry" />
        </mxCell>
        <mxCell id="nJWvSu-OrmdliMbgVe7U-30" value="&lt;font style=&quot;font-size: 10px&quot;&gt;Piloter le Snakebot&lt;/font&gt;" style="ellipse;whiteSpace=wrap;html=1;" vertex="1" parent="1">
          <mxGeometry x="330" y="530" width="100" height="40" as="geometry" />
        </mxCell>
        <mxCell id="nJWvSu-OrmdliMbgVe7U-31" value="" style="endArrow=none;html=1;exitX=0.193;exitY=0.133;exitDx=0;exitDy=0;exitPerimeter=0;entryX=1;entryY=1;entryDx=0;entryDy=0;" edge="1" parent="1" source="nJWvSu-OrmdliMbgVe7U-30" target="nJWvSu-OrmdliMbgVe7U-10">
          <mxGeometry width="50" height="50" relative="1" as="geometry">
            <mxPoint x="400" y="410" as="sourcePoint" />
            <mxPoint x="450" y="360" as="targetPoint" />
          </mxGeometry>
        </mxCell>
        <mxCell id="nJWvSu-OrmdliMbgVe7U-33" value="" style="endArrow=none;html=1;exitX=0;exitY=0.3333333333333333;exitDx=0;exitDy=0;exitPerimeter=0;entryX=1;entryY=1;entryDx=0;entryDy=0;" edge="1" parent="1" source="nJWvSu-OrmdliMbgVe7U-29" target="nJWvSu-OrmdliMbgVe7U-7">
          <mxGeometry width="50" height="50" relative="1" as="geometry">
            <mxPoint x="400" y="410" as="sourcePoint" />
            <mxPoint x="450" y="360" as="targetPoint" />
          </mxGeometry>
        </mxCell>
      </root>
    </mxGraphModel>
  </diagram>
</mxfile>
